<svg id="visual" viewBox="0 0 900 600" width="900" height="600" xmlns="http://www.w3.org/2000/svg" xmlns:xlink="http://www.w3.org/1999/xlink" version="1.1"><g stroke-width="1" stroke-linejoin="bevel"><path d="M466 363.9L533 405.6L541 369.9Z" fill="#a8a8a8" stroke="#a8a8a8"></path><path d="M466 363.9L459 448.6L533 405.6Z" fill="#6a6a6a" stroke="#6a6a6a"></path><path d="M541 369.9L546 284.1L466 363.9Z" fill="#5c5c5c" stroke="#5c5c5c"></path><path d="M459 448.6L460 485.3L533 405.6Z" fill="#989898" stroke="#989898"></path><path d="M570 507.3L626 424.6L533 405.6Z" fill="#c8c8c8" stroke="#c8c8c8"></path><path d="M533 405.6L626 424.6L541 369.9Z" fill="#4e4e4e" stroke="#4e4e4e"></path><path d="M541 369.9L654 371.9L546 284.1Z" fill="#b8b8b8" stroke="#b8b8b8"></path><path d="M460 485.3L570 507.3L533 405.6Z" fill="#989898" stroke="#989898"></path><path d="M626 424.6L654 371.9L541 369.9Z" fill="#d9d9d9" stroke="#d9d9d9"></path><path d="M459 448.6L391 501.3L460 485.3Z" fill="#888888" stroke="#888888"></path><path d="M460 485.3L483 600L570 507.3Z" fill="#888888" stroke="#888888"></path><path d="M330 451.6L391 501.3L459 448.6Z" fill="#404040" stroke="#404040"></path><path d="M546 284.1L423 227.1L466 363.9Z" fill="#d9d9d9" stroke="#d9d9d9"></path><path d="M466 363.9L330 451.6L459 448.6Z" fill="#b8b8b8" stroke="#b8b8b8"></path><path d="M423 227.1L337 318.9L466 363.9Z" fill="#d9d9d9" stroke="#d9d9d9"></path><path d="M570 507.3L646 498.3L626 424.6Z" fill="#a8a8a8" stroke="#a8a8a8"></path><path d="M626 424.6L705 418.6L654 371.9Z" fill="#404040" stroke="#404040"></path><path d="M337 318.9L330 451.6L466 363.9Z" fill="#5c5c5c" stroke="#5c5c5c"></path><path d="M646 498.3L705 418.6L626 424.6Z" fill="#888888" stroke="#888888"></path><path d="M654 371.9L662 249.1L546 284.1Z" fill="#a8a8a8" stroke="#a8a8a8"></path><path d="M546 284.1L524 161.4L423 227.1Z" fill="#404040" stroke="#404040"></path><path d="M687 273.1L662 249.1L654 371.9Z" fill="#989898" stroke="#989898"></path><path d="M278 254.1L296 345.9L337 318.9Z" fill="#888888" stroke="#888888"></path><path d="M337 318.9L296 345.9L330 451.6Z" fill="#c8c8c8" stroke="#c8c8c8"></path><path d="M739 322.9L687 273.1L654 371.9Z" fill="#888888" stroke="#888888"></path><path d="M624 139.4L524 161.4L546 284.1Z" fill="#888888" stroke="#888888"></path><path d="M342 600L483 600L391 501.3Z" fill="#797979" stroke="#797979"></path><path d="M391 501.3L483 600L460 485.3Z" fill="#5c5c5c" stroke="#5c5c5c"></path><path d="M570 507.3L603 600L646 498.3Z" fill="#404040" stroke="#404040"></path><path d="M357 204.4L334 236.1L423 227.1Z" fill="#c8c8c8" stroke="#c8c8c8"></path><path d="M423 227.1L334 236.1L337 318.9Z" fill="#797979" stroke="#797979"></path><path d="M483 600L556 600L570 507.3Z" fill="#989898" stroke="#989898"></path><path d="M443 151.4L357 204.4L423 227.1Z" fill="#888888" stroke="#888888"></path><path d="M524 161.4L443 151.4L423 227.1Z" fill="#c8c8c8" stroke="#c8c8c8"></path><path d="M255 427.6L302 510.3L330 451.6Z" fill="#6a6a6a" stroke="#6a6a6a"></path><path d="M330 451.6L302 510.3L391 501.3Z" fill="#404040" stroke="#404040"></path><path d="M556 600L603 600L570 507.3Z" fill="#404040" stroke="#404040"></path><path d="M646 498.3L704 547.3L705 418.6Z" fill="#6a6a6a" stroke="#6a6a6a"></path><path d="M705 418.6L739 322.9L654 371.9Z" fill="#5c5c5c" stroke="#5c5c5c"></path><path d="M706 192.4L624 139.4L662 249.1Z" fill="#6a6a6a" stroke="#6a6a6a"></path><path d="M296 345.9L255 427.6L330 451.6Z" fill="#d9d9d9" stroke="#d9d9d9"></path><path d="M207 322.9L255 427.6L296 345.9Z" fill="#989898" stroke="#989898"></path><path d="M276 141.4L278 254.1L334 236.1Z" fill="#989898" stroke="#989898"></path><path d="M334 236.1L278 254.1L337 318.9Z" fill="#a8a8a8" stroke="#a8a8a8"></path><path d="M603 600L704 547.3L646 498.3Z" fill="#b8b8b8" stroke="#b8b8b8"></path><path d="M705 418.6L789 363.9L739 322.9Z" fill="#989898" stroke="#989898"></path><path d="M706 192.4L662 249.1L687 273.1Z" fill="#a8a8a8" stroke="#a8a8a8"></path><path d="M662 249.1L624 139.4L546 284.1Z" fill="#888888" stroke="#888888"></path><path d="M524 161.4L552 89.7L443 151.4Z" fill="#4e4e4e" stroke="#4e4e4e"></path><path d="M303 600L342 600L302 510.3Z" fill="#5c5c5c" stroke="#5c5c5c"></path><path d="M302 510.3L342 600L391 501.3Z" fill="#a8a8a8" stroke="#a8a8a8"></path><path d="M822 273.1L706 192.4L687 273.1Z" fill="#6a6a6a" stroke="#6a6a6a"></path><path d="M610 0L609 117.7L716 0Z" fill="#404040" stroke="#404040"></path><path d="M624 139.4L609 117.7L524 161.4Z" fill="#5c5c5c" stroke="#5c5c5c"></path><path d="M792 408.6L789 363.9L705 418.6Z" fill="#404040" stroke="#404040"></path><path d="M739 322.9L822 273.1L687 273.1Z" fill="#4e4e4e" stroke="#4e4e4e"></path><path d="M833 485.3L792 408.6L705 418.6Z" fill="#797979" stroke="#797979"></path><path d="M609 117.7L552 89.7L524 161.4Z" fill="#797979" stroke="#797979"></path><path d="M201 506.3L303 600L302 510.3Z" fill="#888888" stroke="#888888"></path><path d="M278 254.1L207 322.9L296 345.9Z" fill="#d9d9d9" stroke="#d9d9d9"></path><path d="M255 427.6L201 506.3L302 510.3Z" fill="#6a6a6a" stroke="#6a6a6a"></path><path d="M603 600L714 600L704 547.3Z" fill="#b8b8b8" stroke="#b8b8b8"></path><path d="M704 547.3L833 485.3L705 418.6Z" fill="#b8b8b8" stroke="#b8b8b8"></path><path d="M552 89.7L443 58.7L443 151.4Z" fill="#989898" stroke="#989898"></path><path d="M297 95.7L276 141.4L357 204.4Z" fill="#989898" stroke="#989898"></path><path d="M357 204.4L276 141.4L334 236.1Z" fill="#4e4e4e" stroke="#4e4e4e"></path><path d="M278 254.1L166 286.1L207 322.9Z" fill="#797979" stroke="#797979"></path><path d="M156 430.6L201 506.3L255 427.6Z" fill="#4e4e4e" stroke="#4e4e4e"></path><path d="M385 51.7L357 204.4L443 151.4Z" fill="#6a6a6a" stroke="#6a6a6a"></path><path d="M900 327.9L822 273.1L789 363.9Z" fill="#6a6a6a" stroke="#6a6a6a"></path><path d="M789 363.9L822 273.1L739 322.9Z" fill="#404040" stroke="#404040"></path><path d="M610 0L552 89.7L609 117.7Z" fill="#b8b8b8" stroke="#b8b8b8"></path><path d="M836 600L833 485.3L704 547.3Z" fill="#d9d9d9" stroke="#d9d9d9"></path><path d="M792 408.6L900 414.6L789 363.9Z" fill="#a8a8a8" stroke="#a8a8a8"></path><path d="M443 58.7L385 51.7L443 151.4Z" fill="#989898" stroke="#989898"></path><path d="M198 156.4L166 286.1L278 254.1Z" fill="#404040" stroke="#404040"></path><path d="M207 322.9L156 430.6L255 427.6Z" fill="#4e4e4e" stroke="#4e4e4e"></path><path d="M166 286.1L156 430.6L207 322.9Z" fill="#c8c8c8" stroke="#c8c8c8"></path><path d="M385 51.7L297 95.7L357 204.4Z" fill="#b8b8b8" stroke="#b8b8b8"></path><path d="M276 141.4L198 156.4L278 254.1Z" fill="#b8b8b8" stroke="#b8b8b8"></path><path d="M159 92.7L198 156.4L276 141.4Z" fill="#b8b8b8" stroke="#b8b8b8"></path><path d="M201 506.3L195 600L303 600Z" fill="#c8c8c8" stroke="#c8c8c8"></path><path d="M101 600L195 600L201 506.3Z" fill="#4e4e4e" stroke="#4e4e4e"></path><path d="M552 89.7L557 0L443 58.7Z" fill="#d9d9d9" stroke="#d9d9d9"></path><path d="M443 58.7L445 0L385 51.7Z" fill="#d9d9d9" stroke="#d9d9d9"></path><path d="M610 0L557 0L552 89.7Z" fill="#797979" stroke="#797979"></path><path d="M609 117.7L624 139.4L747 66.7Z" fill="#989898" stroke="#989898"></path><path d="M557 0L445 0L443 58.7Z" fill="#d9d9d9" stroke="#d9d9d9"></path><path d="M385 51.7L288 0L297 95.7Z" fill="#d9d9d9" stroke="#d9d9d9"></path><path d="M297 95.7L159 92.7L276 141.4Z" fill="#404040" stroke="#404040"></path><path d="M900 289.1L831 176.4L822 273.1Z" fill="#a8a8a8" stroke="#a8a8a8"></path><path d="M822 273.1L831 176.4L706 192.4Z" fill="#4e4e4e" stroke="#4e4e4e"></path><path d="M747 66.7L624 139.4L706 192.4Z" fill="#797979" stroke="#797979"></path><path d="M831 111.7L747 66.7L706 192.4Z" fill="#a8a8a8" stroke="#a8a8a8"></path><path d="M445 0L384 0L385 51.7Z" fill="#6a6a6a" stroke="#6a6a6a"></path><path d="M833 485.3L900 414.6L792 408.6Z" fill="#797979" stroke="#797979"></path><path d="M714 600L836 600L704 547.3Z" fill="#c8c8c8" stroke="#c8c8c8"></path><path d="M833 485.3L900 482.3L900 414.6Z" fill="#404040" stroke="#404040"></path><path d="M900 414.6L900 327.9L789 363.9Z" fill="#a8a8a8" stroke="#a8a8a8"></path><path d="M900 327.9L900 289.1L822 273.1Z" fill="#797979" stroke="#797979"></path><path d="M900 600L900 482.3L833 485.3Z" fill="#888888" stroke="#888888"></path><path d="M198 156.4L103 269.1L166 286.1Z" fill="#4e4e4e" stroke="#4e4e4e"></path><path d="M58 323.9L81 424.6L156 430.6Z" fill="#d9d9d9" stroke="#d9d9d9"></path><path d="M156 430.6L84 484.3L201 506.3Z" fill="#d9d9d9" stroke="#d9d9d9"></path><path d="M58 323.9L156 430.6L166 286.1Z" fill="#a8a8a8" stroke="#a8a8a8"></path><path d="M831 176.4L831 111.7L706 192.4Z" fill="#4e4e4e" stroke="#4e4e4e"></path><path d="M900 139.4L831 111.7L831 176.4Z" fill="#797979" stroke="#797979"></path><path d="M81 424.6L84 484.3L156 430.6Z" fill="#d9d9d9" stroke="#d9d9d9"></path><path d="M798 0L716 0L747 66.7Z" fill="#a8a8a8" stroke="#a8a8a8"></path><path d="M747 66.7L716 0L609 117.7Z" fill="#404040" stroke="#404040"></path><path d="M384 0L288 0L385 51.7Z" fill="#d9d9d9" stroke="#d9d9d9"></path><path d="M198 156.4L63 143.4L103 269.1Z" fill="#6a6a6a" stroke="#6a6a6a"></path><path d="M197 0L159 92.7L297 95.7Z" fill="#6a6a6a" stroke="#6a6a6a"></path><path d="M0 243.1L58 323.9L103 269.1Z" fill="#4e4e4e" stroke="#4e4e4e"></path><path d="M103 269.1L58 323.9L166 286.1Z" fill="#4e4e4e" stroke="#4e4e4e"></path><path d="M81 424.6L0 482.3L84 484.3Z" fill="#c8c8c8" stroke="#c8c8c8"></path><path d="M836 600L900 600L833 485.3Z" fill="#a8a8a8" stroke="#a8a8a8"></path><path d="M0 600L101 600L84 484.3Z" fill="#797979" stroke="#797979"></path><path d="M84 484.3L101 600L201 506.3Z" fill="#6a6a6a" stroke="#6a6a6a"></path><path d="M900 289.1L900 139.4L831 176.4Z" fill="#d9d9d9" stroke="#d9d9d9"></path><path d="M831 111.7L798 0L747 66.7Z" fill="#404040" stroke="#404040"></path><path d="M103 0L119 100.7L159 92.7Z" fill="#797979" stroke="#797979"></path><path d="M159 92.7L119 100.7L198 156.4Z" fill="#5c5c5c" stroke="#5c5c5c"></path><path d="M900 79.7L798 0L831 111.7Z" fill="#4e4e4e" stroke="#4e4e4e"></path><path d="M288 0L197 0L297 95.7Z" fill="#404040" stroke="#404040"></path><path d="M900 139.4L900 79.7L831 111.7Z" fill="#797979" stroke="#797979"></path><path d="M119 100.7L63 143.4L198 156.4Z" fill="#797979" stroke="#797979"></path><path d="M0 78.7L63 143.4L119 100.7Z" fill="#6a6a6a" stroke="#6a6a6a"></path><path d="M0 243.1L0 368.9L58 323.9Z" fill="#4e4e4e" stroke="#4e4e4e"></path><path d="M58 323.9L0 368.9L81 424.6Z" fill="#404040" stroke="#404040"></path><path d="M0 368.9L0 394.6L81 424.6Z" fill="#5c5c5c" stroke="#5c5c5c"></path><path d="M0 394.6L0 482.3L81 424.6Z" fill="#404040" stroke="#404040"></path><path d="M63 143.4L0 243.1L103 269.1Z" fill="#989898" stroke="#989898"></path><path d="M0 78.7L0 180.4L63 143.4Z" fill="#a8a8a8" stroke="#a8a8a8"></path><path d="M63 143.4L0 180.4L0 243.1Z" fill="#989898" stroke="#989898"></path><path d="M0 482.3L0 600L84 484.3Z" fill="#5c5c5c" stroke="#5c5c5c"></path><path d="M900 79.7L900 0L798 0Z" fill="#797979" stroke="#797979"></path><path d="M197 0L103 0L159 92.7Z" fill="#c8c8c8" stroke="#c8c8c8"></path><path d="M103 0L0 78.7L119 100.7Z" fill="#5c5c5c" stroke="#5c5c5c"></path><path d="M103 0L0 0L0 78.7Z" fill="#888888" stroke="#888888"></path></g></svg>